<svg xmlns="http://www.w3.org/2000/svg" width="1280" height="720" viewBox="0 0 1280 720"><g id="background"><rect width="1280" height="720" fill="#F3F5F3"/></g><g id="header"><text x="64" y="82" font-family="Arial Black, Arial, Arial Unicode MS, Microsoft YaHei, sans-serif" font-size="38" font-weight="bold" fill="#19211F">最初的交互草图，最后基本没变</text></g>
<g id="hardware"><image href="../images/easyinput-v2-assembled-front.png" x="344" y="142" width="720" height="405" preserveAspectRatio="xMidYMid meet"/><rect x="344" y="142" width="720" height="405" fill="none" stroke="#CBD2CE" stroke-width="2"/></g>
<g id="talk-label"><rect x="64" y="188" width="246" height="118" rx="8" fill="#2D7D9A"/><use data-icon="phosphor-duotone/microphone" x="88" y="216" width="48" height="48" fill="#F3F5F3"/><text x="150" y="234" font-family="Arial, Arial Unicode MS, Microsoft YaHei, sans-serif" font-size="22" font-weight="bold" fill="#F3F5F3">S1-S4</text><text x="150" y="270" font-family="Arial, Arial Unicode MS, Microsoft YaHei, sans-serif" font-size="18" fill="#F3F5F3">按住说要求</text><line x1="310" y1="246" x2="430" y2="246" stroke="#2D7D9A" stroke-width="4"/></g>
<g id="listen-label"><rect x="64" y="378" width="246" height="118" rx="8" fill="#1E9668"/><use data-icon="phosphor-duotone/speaker-high" x="88" y="406" width="48" height="48" fill="#F3F5F3"/><text x="150" y="424" font-family="Arial, Arial Unicode MS, Microsoft YaHei, sans-serif" font-size="22" font-weight="bold" fill="#F3F5F3">S5-S8</text><text x="150" y="460" font-family="Arial, Arial Unicode MS, Microsoft YaHei, sans-serif" font-size="18" fill="#F3F5F3">按一下听汇报</text><line x1="310" y1="436" x2="430" y2="436" stroke="#1E9668" stroke-width="4"/></g>
<g id="lights-label"><rect x="1068" y="248" width="148" height="184" rx="8" fill="#FFFFFF" stroke="#CBD2CE" stroke-width="2"/><use data-icon="phosphor-duotone/lightbulb" x="1118" y="272" width="48" height="48" fill="#E0A636"/><text x="1142" y="350" text-anchor="middle" font-family="Arial, Arial Unicode MS, Microsoft YaHei, sans-serif" font-size="17" font-weight="bold" fill="#19211F">左四灯 = 信箱</text><text x="1142" y="382" text-anchor="middle" font-family="Arial, Arial Unicode MS, Microsoft YaHei, sans-serif" font-size="15" fill="#5D6864">最右灯 = 运行数</text><line x1="1040" y1="340" x2="1068" y2="340" stroke="#E0A636" stroke-width="4"/></g><g id="knob-label"><rect x="344" y="558" width="720" height="78" rx="8" fill="#FFFFFF" stroke="#CBD2CE" stroke-width="2"/><use data-icon="phosphor-duotone/speaker-high" x="374" y="579" width="36" height="36" fill="#2D7D9A"/><text x="430" y="589" font-family="Arial, Arial Unicode MS, Microsoft YaHei, sans-serif" font-size="18" font-weight="bold" fill="#19211F">旋转：逆时针减 · 顺时针加（板载扬声器）</text><text x="430" y="616" font-family="Arial, Arial Unicode MS, Microsoft YaHei, sans-serif" font-size="15" fill="#5D6864">短按：播报当前音量</text></g><g id="footer"><text x="64" y="674" font-family="Arial, Arial Unicode MS, Microsoft YaHei, sans-serif" font-size="12" fill="#5D6864">10 / 47</text></g></svg>
