<svg xmlns="http://www.w3.org/2000/svg" width="1280" height="720" viewBox="0 0 1280 720"><g id="background"><rect width="1280" height="720" fill="#F3F5F3"/></g><g id="header"><text x="64" y="84" font-family="Arial Black, Arial, Arial Unicode MS, Microsoft YaHei, sans-serif" font-size="38" font-weight="bold" fill="#19211F">S5-S8：按一下，听对应任务汇报</text></g><g id="mapping"><g id="m1"><rect x="72" y="170" width="244" height="110" rx="8" fill="#2D7D9A"/><text x="194" y="236" text-anchor="middle" font-family="Arial, sans-serif" font-size="28" font-weight="bold" fill="#FFFFFF">S1 · 说</text><line x1="194" y1="280" x2="194" y2="388" stroke="#CBD2CE" stroke-width="5"/><polygon points="182,388 194,412 206,388" fill="#CBD2CE"/><rect x="72" y="412" width="244" height="110" rx="8" fill="#1E9668"/><text x="194" y="478" text-anchor="middle" font-family="Arial, sans-serif" font-size="28" font-weight="bold" fill="#FFFFFF">S5 · 听</text></g><g id="m2"><rect x="370" y="170" width="244" height="110" rx="8" fill="#2D7D9A"/><text x="492" y="236" text-anchor="middle" font-family="Arial, sans-serif" font-size="28" font-weight="bold" fill="#FFFFFF">S2 · 说</text><line x1="492" y1="280" x2="492" y2="388" stroke="#CBD2CE" stroke-width="5"/><polygon points="480,388 492,412 504,388" fill="#CBD2CE"/><rect x="370" y="412" width="244" height="110" rx="8" fill="#1E9668"/><text x="492" y="478" text-anchor="middle" font-family="Arial, sans-serif" font-size="28" font-weight="bold" fill="#FFFFFF">S6 · 听</text></g><g id="m3"><rect x="668" y="170" width="244" height="110" rx="8" fill="#2D7D9A"/><text x="790" y="236" text-anchor="middle" font-family="Arial, sans-serif" font-size="28" font-weight="bold" fill="#FFFFFF">S3 · 说</text><line x1="790" y1="280" x2="790" y2="388" stroke="#CBD2CE" stroke-width="5"/><polygon points="778,388 790,412 802,388" fill="#CBD2CE"/><rect x="668" y="412" width="244" height="110" rx="8" fill="#1E9668"/><text x="790" y="478" text-anchor="middle" font-family="Arial, sans-serif" font-size="28" font-weight="bold" fill="#FFFFFF">S7 · 听</text></g><g id="m4"><rect x="966" y="170" width="244" height="110" rx="8" fill="#2D7D9A"/><text x="1088" y="236" text-anchor="middle" font-family="Arial, sans-serif" font-size="28" font-weight="bold" fill="#FFFFFF">S4 · 说</text><line x1="1088" y1="280" x2="1088" y2="388" stroke="#CBD2CE" stroke-width="5"/><polygon points="1076,388 1088,412 1100,388" fill="#CBD2CE"/><rect x="966" y="412" width="244" height="110" rx="8" fill="#1E9668"/><text x="1088" y="478" text-anchor="middle" font-family="Arial, sans-serif" font-size="28" font-weight="bold" fill="#FFFFFF">S8 · 听</text></g></g><g id="caption"><text x="640" y="600" text-anchor="middle" font-family="Arial, Arial Unicode MS, Microsoft YaHei, sans-serif" font-size="22" fill="#5D6864">一组键位就是一个频道：上排发消息，下排收回信。</text></g><g id="footer"><text x="64" y="674" font-family="Arial, Arial Unicode MS, Microsoft YaHei, sans-serif" font-size="12" fill="#5D6864">19 / 47</text></g></svg>
