<?xml version="1.0" encoding="UTF-8"?>
<svg xmlns="http://www.w3.org/2000/svg" width="1280" height="720" viewBox="0 0 1280 720">
  <g id="background">
    <rect width="1280" height="720" fill="#F3F5F3"/>
  </g>
  <g id="header">
    <text x="64" y="74" font-family="Arial Black, Arial, Arial Unicode MS, Microsoft YaHei, sans-serif" font-size="38" font-weight="bold" fill="#19211F">附录：完整语音输入时序</text>
  </g>
  <g id="lanes">
    <text x="150" y="132" text-anchor="middle" font-family="Arial, Arial Unicode MS, Microsoft YaHei, sans-serif" font-size="18" font-weight="bold" fill="#2D7D9A">键盘</text>
    <text x="500" y="132" text-anchor="middle" font-family="Arial, Arial Unicode MS, Microsoft YaHei, sans-serif" font-size="18" font-weight="bold" fill="#1E9668">Mac Host</text>
    <text x="850" y="132" text-anchor="middle" font-family="Arial, Arial Unicode MS, Microsoft YaHei, sans-serif" font-size="18" font-weight="bold" fill="#2D7D9A">DashScope</text>
    <text x="1130" y="132" text-anchor="middle" font-family="Arial, sans-serif" font-size="18" font-weight="bold" fill="#19211F">Codex</text>
    <line x1="150" y1="152" x2="150" y2="620" stroke="#CBD2CE" stroke-width="2"/>
    <line x1="500" y1="152" x2="500" y2="620" stroke="#CBD2CE" stroke-width="2"/>
    <line x1="850" y1="152" x2="850" y2="620" stroke="#CBD2CE" stroke-width="2"/>
    <line x1="1130" y1="152" x2="1130" y2="620" stroke="#CBD2CE" stroke-width="2"/>
  </g>
  <g id="events">
    <rect x="92" y="178" width="116" height="42" rx="8" fill="#2D7D9A"/>
    <text x="150" y="206" text-anchor="middle" font-family="Arial, sans-serif" font-size="15" font-weight="bold" fill="#FFFFFF">S1 DOWN</text>
    <text x="190" y="256" font-family="Arial, Arial Unicode MS, Microsoft YaHei, sans-serif" font-size="22" fill="#5D6864">固件启动本次采集</text>
    <rect x="92" y="284" width="116" height="42" rx="8" fill="#2D7D9A"/>
    <text x="150" y="312" text-anchor="middle" font-family="Arial, sans-serif" font-size="15" font-weight="bold" fill="#FFFFFF">PCM</text>
    <line x1="150" y1="350" x2="500" y2="350" stroke="#2D7D9A" stroke-width="4"/>
    <polygon points="500,340 520,350 500,360" fill="#2D7D9A"/>
    <text x="316" y="340" text-anchor="middle" font-family="Arial, sans-serif" font-size="22" fill="#5D6864">EIAU v3 + HMAC</text>
    <rect x="92" y="390" width="116" height="42" rx="8" fill="#1E9668"/>
    <text x="150" y="418" text-anchor="middle" font-family="Arial, sans-serif" font-size="15" font-weight="bold" fill="#FFFFFF">S1 UP</text>
    <line x1="150" y1="456" x2="500" y2="456" stroke="#1E9668" stroke-width="4"/>
    <polygon points="500,446 520,456 500,466" fill="#1E9668"/>
    <text x="316" y="446" text-anchor="middle" font-family="Arial, sans-serif" font-size="22" fill="#5D6864">EIAE v3 end</text>
    <line x1="500" y1="496" x2="850" y2="496" stroke="#2D7D9A" stroke-width="4"/>
    <polygon points="850,486 870,496 850,506" fill="#2D7D9A"/>
    <text x="666" y="486" text-anchor="middle" font-family="Arial, sans-serif" font-size="22" fill="#5D6864">Qwen ASR</text>
    <line x1="850" y1="540" x2="500" y2="540" stroke="#1E9668" stroke-width="4"/>
    <polygon points="500,530 480,540 500,550" fill="#1E9668"/>
    <text x="666" y="530" text-anchor="middle" font-family="Arial, Arial Unicode MS, Microsoft YaHei, sans-serif" font-size="22" fill="#5D6864">识别文本</text>
    <line x1="500" y1="584" x2="1130" y2="584" stroke="#1E9668" stroke-width="4"/>
    <polygon points="1130,574 1150,584 1130,594" fill="#1E9668"/>
    <text x="812" y="574" text-anchor="middle" font-family="Arial, Arial Unicode MS, Microsoft YaHei, sans-serif" font-size="22" fill="#5D6864">Host 排队，到执行时通过 stdin 提交</text>
  </g>
  <g id="footer">
    <text x="64" y="674" font-family="Arial, Arial Unicode MS, Microsoft YaHei, sans-serif" font-size="12" fill="#5D6864">44 / 47</text>
  </g>
</svg>
